<?xml version="1.0" encoding="UTF-8"?>
<svg version="1.1" xmlns="http://www.w3.org/2000/svg" width="512" height="512">
<path d="M0 0 C13.81855441 11.61126452 25.20439775 24.73564457 32.875 41.25 C32.875 41.91 32.875 42.57 32.875 43.25 C33.535 42.92 34.195 42.59 34.875 42.25 C41.57690954 41.21893699 46.083978 43.52797423 51.77441406 46.84765625 C54.64342027 48.45106705 56.56283465 49.2605681 59.875 49.1484375 C63.31500273 48.11822835 66.48171235 46.80106308 69.75 45.3125 C74.7339183 43.08850053 79.5157723 41.32184554 84.875 40.25 C85.24625 38.331875 85.24625 38.331875 85.625 36.375 C87.51655418 28.04690731 89.4544721 21.04242427 96.875 16.25 C102.22915385 14.46313092 108.11404058 15.02445841 113.6875 15 C114.85087891 14.979375 116.01425781 14.95875 117.21289062 14.9375 C124.81370547 14.90289185 130.49510161 14.90506607 136.140625 20.4921875 C138.15345842 23.69277398 139.39562708 26.80071207 140.625 30.375 C141.26695312 32.20417969 141.26695312 32.20417969 141.921875 34.0703125 C142.875 37.25 142.875 37.25 142.875 40.25 C143.51824219 40.39695313 144.16148437 40.54390625 144.82421875 40.6953125 C151.65722483 42.39137963 157.59070092 44.88427874 163.83203125 48.140625 C167.45919826 49.46298114 169.19063324 49.31716259 172.875 48.25 C174.86491578 47.29218721 176.82395833 46.2680247 178.75 45.1875 C183.96965353 42.50992742 187.06660711 41.26552663 192.875 42.25 C199.02222 45.20783611 203.3693381 49.28948557 208.125 54.125 C209.18460937 55.16720703 209.18460937 55.16720703 210.265625 56.23046875 C214.9580962 60.94960172 218.46099248 64.81570906 219.28515625 71.65234375 C218.71291933 76.67167902 216.64747485 80.34116238 214.27539062 84.73242188 C212.04974881 89.09827682 211.44744266 91.55518799 212.875 96.25 C213.95184893 99.14552713 215.14301423 101.97992227 216.375 104.8125 C220.22921485 113.72053473 220.22921485 113.72053473 220.875 118.25 C222.793125 118.62125 222.793125 118.62125 224.75 119 C231.23407825 120.46480757 237.70348678 122.02552305 242.4375 126.875 C245.83790158 132.49305478 245.1358876 138.33799741 245.17016602 144.74316406 C245.18732983 146.97784469 245.23120843 149.21102621 245.27539062 151.4453125 C245.28552243 152.87498915 245.29403701 154.30467836 245.30078125 155.734375 C245.32265503 157.67908691 245.32265503 157.67908691 245.3449707 159.66308594 C244.68212374 164.72207169 242.61299626 167.90781453 238.59375 171.01171875 C235.88316211 172.24628249 233.25332163 172.92547632 230.35498047 173.57861328 C225.4631825 174.77411804 221.77111182 175.82170749 218.9609375 180.30078125 C217.69402411 183.87551128 217.69402411 183.87551128 216.8203125 187.6328125 C215.88216999 191.2225644 214.55077303 193.6148043 212.625 196.75 C210.81700498 200.51018597 210.68943402 201.71724605 212.0859375 205.7265625 C213.31273871 208.19341689 214.67842904 210.56953346 216.05859375 212.953125 C218.39516302 217.19412385 219.34580939 220.45339178 218.875 225.25 C216.66566548 231.81739197 212.33548091 236.34645777 207.4375 241.0625 C206.78201172 241.71669922 206.12652344 242.37089844 205.45117188 243.04492188 C200.54638692 247.86115504 196.25415623 251.7113105 189.109375 252.3828125 C184.00538282 252.07942835 178.97688134 249.65125423 174.765625 246.84375 C172.31983428 245.33581888 170.74976636 244.57658033 167.875 244.25 C163.81379964 245.6140673 160.22508675 247.37571675 156.47265625 249.41796875 C153.5648412 250.99294036 151.10425921 251.66270556 147.8125 252.125 C145.45449827 253.12063902 144.16617087 253.7517307 142.86035156 255.98632812 C142.6228418 256.66115234 142.38533203 257.33597656 142.140625 258.03125 C141.8712915 258.77391113 141.60195801 259.51657227 141.32446289 260.28173828 C140.58420497 262.55825079 139.92026119 264.84719053 139.26171875 267.1484375 C137.93617518 271.50365374 136.0861603 274.79109011 132.19360352 277.359375 C127.22024841 279.26974664 121.51052334 278.62177171 116.23095703 278.62060547 C114.01386342 278.62497269 111.79877217 278.66129628 109.58203125 278.69921875 C108.16146509 278.70508894 106.74088954 278.70905698 105.3203125 278.7109375 C104.03656738 278.71915527 102.75282227 278.72737305 101.43017578 278.73583984 C96.78745892 278.10137984 93.4373064 276.28377164 90.5546875 272.53125 C90.28914063 271.9434375 90.02359375 271.355625 89.75 270.75 C89.26853516 269.72132813 89.26853516 269.72132813 88.77734375 268.671875 C87.875 266.25 87.875 266.25 87.12890625 263.203125 C86.85949219 262.14609375 86.59007812 261.0890625 86.3125 260 C86.10496094 259.00484375 85.89742188 258.0096875 85.68359375 256.984375 C83.31230864 252.80965495 83.31230864 252.80965495 72.875 250.25 C72.545 262.79 72.215 275.33 71.875 288.25 C74.8140625 288.21519531 77.753125 288.18039062 80.78125 288.14453125 C83.64745107 288.12109323 86.51364121 288.10290084 89.37988281 288.08520508 C91.3623538 288.07017656 93.34479186 288.04974802 95.32714844 288.02368164 C98.18693193 287.98703617 101.04627344 287.97021396 103.90625 287.95703125 C104.78365845 287.94154739 105.66106689 287.92606354 106.56506348 287.91011047 C113.58429041 287.90821761 119.48100161 289.20269214 125.1875 293.5625 C129.99609392 298.37109392 131.21449655 302.60964999 131.28158569 309.21253967 C131.27247665 310.55462746 131.27247665 310.55462746 131.26318359 311.92382812 C131.27106903 313.35909096 131.27106903 313.35909096 131.27911377 314.823349 C131.29228301 317.97615029 131.2835864 321.12844386 131.2734375 324.28125 C131.27545911 326.47790626 131.27837128 328.67456186 131.28213501 330.87121582 C131.2865542 335.47101238 131.28014019 340.07063396 131.26611328 344.67041016 C131.24902181 350.56177957 131.25886513 356.45273895 131.27683067 362.34409332 C131.28767933 366.87887655 131.28421716 371.41356282 131.2764473 375.948349 C131.27444829 378.12043812 131.27689402 380.29253608 131.28388596 382.46461487 C131.29151806 385.50203722 131.27987114 388.53879865 131.26318359 391.57617188 C131.26925629 392.47089706 131.27532898 393.36562225 131.28158569 394.28746033 C131.22159571 400.19165261 130.32250518 404.53570516 126.2265625 409.078125 C125.65679687 409.54734375 125.08703125 410.0165625 124.5 410.5 C123.65308594 411.21929687 123.65308594 411.21929687 122.7890625 411.953125 C118.47493418 414.87616704 114.69207697 415.50073304 109.53491497 415.50726891 C108.24800375 415.5137178 106.96109252 415.52016669 105.63518399 415.526811 C104.2090747 415.52386879 102.78296579 415.52073336 101.3568573 415.51742554 C99.84031473 415.52116199 98.32377408 415.52576349 96.80723649 415.53115618 C92.63817692 415.5434023 88.46919751 415.54312382 84.30012405 415.54076743 C79.80443512 415.54035967 75.30877202 415.5513945 70.81309509 415.56088257 C62.00453089 415.57750237 53.19599346 415.58299256 44.38741489 415.58410732 C37.2279872 415.58505733 30.06856835 415.58916527 22.90914345 415.59550858 C2.61499456 415.61312365 -17.67913317 415.62234703 -37.97328977 415.62084763 C-39.06757533 415.62076772 -40.1618609 415.6206878 -41.28930664 415.62060547 C-42.38492689 415.62052371 -43.48054713 415.62044195 -44.60936799 415.62035771 C-62.36723021 415.61954473 -80.12500763 415.63868467 -97.88284532 415.6668822 C-116.11240834 415.69560059 -134.34192999 415.70942307 -152.57151622 415.70769465 C-162.80767598 415.70703039 -173.04374684 415.71253856 -183.27988625 415.73405075 C-191.99497636 415.75224879 -200.70993727 415.75662122 -209.42503814 415.7430319 C-213.87161453 415.73649529 -218.31794295 415.73640999 -222.76449585 415.7537384 C-226.83641422 415.76944365 -230.90788748 415.76663178 -234.97979482 415.74917014 C-236.45151614 415.7460946 -237.92327047 415.74975353 -239.39495287 415.76089029 C-248.41384144 415.82461024 -255.16959796 415.62241356 -262.18359375 409.43359375 C-262.63863281 408.85738281 -263.09367187 408.28117187 -263.5625 407.6875 C-264.03558594 407.10871094 -264.50867188 406.52992188 -264.99609375 405.93359375 C-266.9176161 403.06793239 -267.25285842 400.53504444 -267.27890015 397.18464661 C-267.28750061 396.35908264 -267.29610107 395.53351868 -267.30496216 394.68293762 C-267.30922211 393.7805687 -267.31348206 392.87819977 -267.31787109 391.94848633 C-267.32604858 390.9952951 -267.33422607 390.04210388 -267.34265137 389.06002808 C-267.3674941 385.90070218 -267.38401963 382.74142122 -267.3984375 379.58203125 C-267.40642302 377.96280038 -267.40642302 377.96280038 -267.41456985 376.31085777 C-267.44129806 370.59583623 -267.46067303 364.8808365 -267.47509766 359.16577148 C-267.49173401 353.26879243 -267.5365048 347.37237347 -267.5874691 341.47560596 C-267.62116078 336.93647129 -267.63267729 332.39746918 -267.63832474 327.85822105 C-267.64503307 325.6849509 -267.66024415 323.51168933 -267.68421555 321.33854103 C-267.71590682 318.29139502 -267.71589741 315.24575453 -267.70849609 312.19848633 C-267.7331041 310.86011467 -267.7331041 310.86011467 -267.75820923 309.4947052 C-267.68368024 301.97178902 -265.02601377 297.15101377 -259.75 291.875 C-253.53296674 288.02636036 -247.354559 287.97163798 -240.25390625 288.0546875 C-238.87041237 288.05893234 -238.87041237 288.05893234 -237.45896912 288.06326294 C-234.53500987 288.07439026 -231.61136549 288.09948088 -228.6875 288.125 C-226.69596799 288.13503943 -224.70443114 288.1441636 -222.71289062 288.15234375 C-217.8501405 288.17430517 -212.9876235 288.20878327 -208.125 288.25 C-208.12868717 287.51615869 -208.13237434 286.78231737 -208.13617325 286.02623844 C-208.2246159 268.14770308 -208.29075412 250.26921154 -208.33224869 232.39050388 C-208.35284994 223.74438672 -208.38092375 215.09841584 -208.42675781 206.45239258 C-208.46670042 198.91410802 -208.49245052 191.37592944 -208.50135398 183.837542 C-208.50655621 179.84815564 -208.51873203 175.85907236 -208.54792023 171.8697834 C-208.57520698 168.10966914 -208.58341851 164.34998087 -208.57743073 160.58977699 C-208.57904421 158.56253227 -208.60049727 156.53533322 -208.62268066 154.50820923 C-208.58961116 147.14688206 -207.81366962 141.66080048 -204.125 135.25 C-203.568125 134.198125 -203.01125 133.14625 -202.4375 132.0625 C-197.23822302 125.73905502 -190.04562778 122.06315576 -182.125 120.25 C-181.135 120.25 -180.145 120.25 -179.125 120.25 C-179.13547363 119.32477539 -179.14594727 118.39955078 -179.15673828 117.44628906 C-179.54669045 77.71065698 -177.4079949 41.27496267 -148.125 11.25 C-147.320625 10.39535156 -146.51625 9.54070312 -145.6875 8.66015625 C-140.27651582 3.0378055 -134.71759231 -1.58521863 -128.125 -5.75 C-127.22265625 -6.33523437 -126.3203125 -6.92046875 -125.390625 -7.5234375 C-86.60517928 -31.52848364 -35.77980177 -27.35423554 0 0 Z M-139.8203125 27.31640625 C-162.59389318 55.07103619 -162.49210469 86.04808017 -162.125 120.25 C-156.515 120.25 -150.905 120.25 -145.125 120.25 C-145.07601562 117.74148437 -145.02703125 115.23296875 -144.9765625 112.6484375 C-144.92226964 110.16921954 -144.86507461 107.69008391 -144.80761719 105.2109375 C-144.76976564 103.51210889 -144.7348441 101.81321199 -144.703125 100.11425781 C-144.2634498 76.83895166 -141.61712336 54.58360341 -124.6640625 37.02734375 C-122.90679526 35.38986205 -122.90679526 35.38986205 -123.125 33.25 C-122.526875 32.97542969 -121.92875 32.70085937 -121.3125 32.41796875 C-119.2176337 31.29945978 -117.83450024 30.1874156 -116.125 28.5625 C-99.46932822 14.12523693 -78.42785573 10.9080288 -57.125 12.25 C-40.21096887 14.28261741 -24.64588275 22.8428955 -13.125 35.25 C-12.53203125 35.82621094 -11.9390625 36.40242188 -11.328125 36.99609375 C6.20398509 54.96990429 7.8678742 79.16461686 8.4375 102.875 C8.48078206 104.56381077 8.52439911 106.252613 8.56835938 107.94140625 C8.67505566 112.04418054 8.77487583 116.14703923 8.875 120.25 C14.485 120.25 20.095 120.25 25.875 120.25 C26.26397129 83.81635625 25.83497982 50.01953228 -1.125 22.25 C-18.26471713 4.76150955 -40.85268653 -5.43148075 -65.31591797 -6.22290039 C-94.36049411 -6.5030975 -120.77515544 5.12508454 -139.8203125 27.31640625 Z M-114.125 49.25 C-130.50049724 70.29130987 -128.125 93.98542904 -128.125 120.25 C-88.525 120.25 -48.925 120.25 -8.125 120.25 C-7.04862917 79.11899119 -7.04862917 79.11899119 -25.75 45.0625 C-38.87391617 32.70012635 -54.35302722 27.73567858 -72.03125 28.04296875 C-88.73099049 28.67190999 -103.11935699 37.14706817 -114.125 49.25 Z M82.875 104.25 C82.03453125 104.87519531 81.1940625 105.50039062 80.328125 106.14453125 C72.7076152 112.36794759 67.57043598 120.31537834 64.015625 129.4609375 C63.8222617 131.92094833 64.61377887 132.70506577 66.1875 134.5625 C70.72365955 139.93050543 71.13596164 146.24828829 70.9375 153.01953125 C70.9285634 154.50063839 70.92213178 155.98176238 70.91796875 157.46289062 C70.9037681 159.76168181 70.87520348 162.05600471 70.80322266 164.35375977 C70.44197745 173.84319524 70.44197745 173.84319524 73.9987793 182.43359375 C84.92753924 193.53531232 98.29138039 199.56862412 113.875 199.75 C128.75554387 199.56136241 140.76114325 194.19231237 151.625 184.0625 C161.91643391 173.21776319 166.85612137 160.0886045 166.875 145.25 C165.85531383 130.97439362 159.83900438 117.88814495 149.48828125 107.9609375 C138.841559 99.03574177 125.79114541 93.37243663 111.66796875 93.90234375 C101.15685726 95.21071987 91.4115413 97.78952232 82.875 104.25 Z M-75 197.375 C-77.36829016 200.57915727 -78.125 202.27790584 -78.125 206.25 C-76.51936079 209.88381505 -74.6329651 212.34567609 -71.125 214.25 C-66.92906901 214.97972713 -65.4337324 214.44805475 -61.8125 212.125 C-58.8081262 208.91101872 -58.03598767 207.61160415 -58.125 203.25 C-59.28204565 200.08334875 -60.20446428 197.97327807 -62.875 195.875 C-67.70682362 194.53282677 -70.88292347 194.33194343 -75 197.375 Z M-249.97572428 307.05104673 C-251.72931986 310.40626834 -251.53380372 313.74777529 -251.49731445 317.44335938 C-251.50096512 318.26657181 -251.50461578 319.08978424 -251.50837708 319.9379425 C-251.5164773 322.65675542 -251.50287694 325.37497135 -251.48828125 328.09375 C-251.48776258 329.98417155 -251.48828055 331.87459364 -251.48979187 333.76501465 C-251.48970217 337.72607479 -251.47927727 341.68693132 -251.46118164 345.64794922 C-251.43849462 350.72567033 -251.43795064 355.8030939 -251.44469929 360.88085175 C-251.44804055 364.78418625 -251.4414062 368.6874529 -251.43157005 372.59077454 C-251.42772048 374.46307521 -251.42656883 376.33538342 -251.4281559 378.20768738 C-251.4285267 380.82415144 -251.41590222 383.44023388 -251.3996582 386.05664062 C-251.40213562 386.83078812 -251.40461304 387.60493561 -251.40716553 388.40254211 C-251.36879744 392.27422847 -250.99660403 394.88251314 -249.125 398.25 C-203.02536248 398.27286434 -156.92572555 398.29049719 -110.82608349 398.30106533 C-105.38967088 398.30231611 -99.95325829 398.30361043 -94.5168457 398.30493164 C-92.89333535 398.30532511 -92.89333535 398.30532511 -91.2370268 398.30572652 C-73.68754784 398.31008366 -56.13807213 398.31797145 -38.5885951 398.3271528 C-20.59540303 398.33648812 -2.60221266 398.34205535 15.39098173 398.34408849 C26.50320288 398.34546398 37.61541481 398.34981592 48.72763313 398.35791647 C56.33674413 398.36318243 63.94585035 398.36480464 71.55496304 398.36350138 C75.95194682 398.36285776 80.34891445 398.36387815 84.74589539 398.36920547 C88.76445807 398.37403905 92.78299361 398.37433893 96.80155749 398.37089889 C98.26186227 398.37047316 99.72216868 398.37176925 101.18247019 398.37488318 C103.15446425 398.37884659 105.12646843 398.37615662 107.09846401 398.37304783 C108.19775437 398.37342755 109.29704472 398.37380727 110.42964691 398.3741985 C112.82183975 398.52660328 112.82183975 398.52660328 113.875 397.25 C113.98084361 394.46085226 114.02177813 391.69633522 114.02026367 388.90649414 C114.02362228 388.03173935 114.0269809 387.15698456 114.03044128 386.25572205 C114.03998128 383.34885254 114.04189591 380.44204045 114.04296875 377.53515625 C114.04617918 375.52355424 114.04954309 373.51195246 114.05305481 371.50035095 C114.0590537 367.27765359 114.06089393 363.05497672 114.06030273 358.83227539 C114.06020106 353.41015603 114.07385521 347.98816747 114.09107494 342.56607914 C114.10217045 338.40977876 114.1042227 334.25351025 114.10369301 330.09719658 C114.10487676 328.09763577 114.10932047 326.09807423 114.11702538 324.09852791 C114.12677614 321.30655776 114.1239668 318.51487475 114.11791992 315.72290039 C114.12353943 314.89009552 114.12915894 314.05729065 114.13494873 313.19924927 C114.29674739 308.75344889 114.29674739 308.75344889 111.875 305.25 C109.20092378 304.94320944 109.20092378 304.94320944 106.01503086 304.99273109 C104.75887645 304.9862822 103.50272205 304.97983331 102.20850235 304.973189 C100.80156322 304.97613173 99.39462448 304.9792672 97.98768616 304.98257446 C96.50316763 304.97884116 95.01865107 304.97424093 93.53413767 304.96884382 C89.43985927 304.95655885 85.34566224 304.95688071 81.2513696 304.95923257 C76.84161362 304.95963935 72.43188422 304.94861493 68.0221405 304.93911743 C59.37727129 304.92247666 50.73242935 304.91700651 42.08754546 304.91589268 C35.06387255 304.91494371 28.04020867 304.91084103 21.01653862 304.90449142 C1.1220371 304.88687107 -18.77244281 304.87765386 -38.66695219 304.87915237 C-39.74035162 304.87923228 -40.81375105 304.8793122 -41.91967773 304.87939453 C-43.53173281 304.87951717 -43.53173281 304.87951717 -45.17635465 304.87964229 C-62.60152673 304.88045555 -80.02661243 304.86130998 -97.45175951 304.8331178 C-115.32524963 304.80442739 -133.19869758 304.79057536 -151.07221133 304.79230535 C-161.114314 304.79297056 -171.15632613 304.78742124 -181.19840813 304.76594925 C-189.74719469 304.74778797 -198.29584966 304.74334835 -206.8446471 304.7569681 C-211.20957415 304.76352328 -215.57424837 304.76352373 -219.93915176 304.7462616 C-223.93074691 304.7306376 -227.92188655 304.73328382 -231.91346986 304.75082986 C-233.36163888 304.7539235 -234.80984102 304.75017939 -236.25797104 304.73910971 C-238.21833216 304.72511058 -240.17883095 304.73789801 -242.13918972 304.75222206 C-243.23056096 304.75178733 -244.32193221 304.75135259 -245.44637531 304.75090468 C-248.22267291 305.01212418 -248.22267291 305.01212418 -249.97572428 307.05104673 Z " fill="#5407A5" transform="translate(267.125,59.75)"/>
<path d="M0 0 C1.39278809 -0.00551503 1.39278809 -0.00551503 2.81371331 -0.01114148 C5.94435685 -0.02220909 9.07496724 -0.02602736 12.20562744 -0.02983093 C14.44246527 -0.03609324 16.67930206 -0.04273983 18.9161377 -0.04974365 C25.00713334 -0.06717463 31.09812113 -0.07771105 37.18913555 -0.08594918 C40.99200007 -0.0910947 44.79486213 -0.09717062 48.59772491 -0.10346031 C59.12515303 -0.12033286 69.65258001 -0.13496786 80.18001938 -0.14220905 C82.91251375 -0.14411897 85.64500811 -0.1460393 88.37750244 -0.147995 C89.05665774 -0.14847874 89.73581305 -0.14896248 90.43554881 -0.14946087 C101.43744837 -0.15776118 112.43923919 -0.18309756 123.44109127 -0.21557567 C134.73452697 -0.24864292 146.02790946 -0.26632472 157.32139993 -0.26985329 C163.66306707 -0.27220743 170.0045624 -0.28121523 176.34618378 -0.30631447 C182.31171174 -0.32954317 188.27695415 -0.33384926 194.24251556 -0.32355309 C196.43308459 -0.32305635 198.62366743 -0.32941699 200.81419373 -0.34310913 C203.80323152 -0.36074825 206.7912357 -0.35376087 209.78027344 -0.34057617 C210.64856836 -0.35154542 211.51686328 -0.36251466 212.41147017 -0.37381631 C217.80308657 -0.3163392 220.87031215 0.55947137 225.144104 4.14717102 C230.28679811 10.483712 229.68586093 16.99358594 229.59820557 24.88520813 C229.59697888 26.29779548 229.59751649 27.71038529 229.5996666 29.12297153 C229.60056629 32.89149526 229.57745475 36.6595066 229.54922485 40.42790985 C229.52637347 43.96947774 229.52536855 47.51092367 229.52252197 51.05256653 C229.50156788 61.39666871 229.44572291 71.74067641 229.394104 82.08467102 C229.311604 105.20529602 229.229104 128.32592102 229.144104 152.14717102 C147.304104 152.14717102 65.464104 152.14717102 -18.855896 152.14717102 C-18.917771 129.00592102 -18.979646 105.86467102 -19.043396 82.02217102 C-19.07070801 74.71560364 -19.09802002 67.40903625 -19.12615967 59.88105774 C-19.13970947 50.95796204 -19.13970947 50.95796204 -19.14222717 46.78050232 C-19.14502183 43.86319635 -19.15626296 40.9460542 -19.17262268 38.02879333 C-19.19322512 34.30555702 -19.19936487 30.58255836 -19.19511282 26.85927033 C-19.19642058 24.85090092 -19.21249833 22.84255767 -19.22918224 20.83425713 C-19.22504975 19.64208139 -19.22091726 18.44990566 -19.21665955 17.22160339 C-19.21942492 16.18735167 -19.2221903 15.15309994 -19.22503948 14.08750725 C-18.62158661 9.28082798 -16.86870162 6.06116634 -13.293396 2.83467102 C-8.86183166 -0.23333506 -5.25197124 -0.00110379 0 0 Z M98.269104 60.27217102 C95.90081385 63.47632829 95.144104 65.17507686 95.144104 69.14717102 C96.74974321 72.78098607 98.6361389 75.24284711 102.144104 77.14717102 C106.34003499 77.87689815 107.8353716 77.34522577 111.456604 75.02217102 C114.46097781 71.80818974 115.23311633 70.50877517 115.144104 66.14717102 C113.98705836 62.98051977 113.06463973 60.87044909 110.394104 58.77217102 C105.56228039 57.42999779 102.38618054 57.22911445 98.269104 60.27217102 Z " fill="#A578FE" transform="translate(93.85589599609375,196.8528289794922)"/>
<path d="M0 0 C6.6 0 13.2 0 20 0 C22.6875 8.1875 22.6875 8.1875 23.4987793 10.73901367 C25.15193235 15.58668766 26.80109284 18.82507701 31 22 C33.9879565 23.41108982 37.05206005 24.46577645 40.1875 25.5 C45.54681832 27.34819833 50.65673899 29.16688999 55.625 31.9375 C60.2440993 34.31054242 63.87804703 35.29610395 69 34 C72.09306541 32.54322143 75.09916299 31.05621012 78.04003906 29.31542969 C81.10558412 27.57533818 82.44022252 26.84883014 85.921875 27.7890625 C86.60765625 28.18867187 87.2934375 28.58828125 88 29 C88 29.66 88 30.32 88 31 C88.99 31.33 89.98 31.66 91 32 C96.97799818 37.39477884 96.97799818 37.39477884 98 41 C96.97874884 43.37097492 95.92068728 45.41572921 94.625 47.625 C91.4486314 53.61470162 89.1708383 58.23679186 91 65 C92.74470303 69.38159662 94.8491206 73.58176656 96.97265625 77.7890625 C99.17456345 82.20888349 100.64413129 86.71599949 101.91796875 91.484375 C103.6363574 95.47947353 106.03906821 98.06371434 109.99926758 99.95458984 C112.25362638 100.81864023 114.51147653 101.58086657 116.8125 102.3125 C120.8653125 103.6428125 120.8653125 103.6428125 125 105 C125 111.6 125 118.2 125 125 C116.25 127.6875 116.25 127.6875 113.51269531 128.4987793 C108.61364255 130.0695641 105.68149248 131.3695203 103 136 C101.9442264 138.52335418 101.00153407 140.98101156 100.125 143.5625 C98.29800044 148.75184268 96.28501443 153.5380398 93.625 158.375 C90.88548747 163.78135895 89.49320602 168.00726508 91 174 C92.44772891 177.14872481 93.93075465 180.19259088 95.68432617 183.17919922 C98.11738289 187.44871963 98.11738289 187.44871963 97.5625 190.0546875 C95.3485114 192.8111033 92.91227512 195.29644208 90.375 197.75 C89.859375 198.25660156 89.34375 198.76320313 88.8125 199.28515625 C87.54616661 200.52803902 86.2736856 201.76465276 85 203 C84.49662109 202.75241943 83.99324219 202.50483887 83.47460938 202.24975586 C81.15907997 201.12515353 78.83019251 200.03137564 76.5 198.9375 C75.70851563 198.54755859 74.91703125 198.15761719 74.1015625 197.75585938 C68.70492793 195.25659828 64.76901457 194.24099643 59 196 C56.15507859 197.10151458 53.46241094 198.41989475 50.75 199.8125 C44.77647048 202.78093302 39.00993036 205.16890342 32.515625 206.8203125 C28.35877626 208.76964219 25.9288032 211.85527067 24.13916016 215.98779297 C23.411706 218.10415757 22.78306957 220.21759099 22.1875 222.375 C21.465625 224.89125 20.74375 227.4075 20 230 C13.4 230 6.8 230 0 230 C-2.625 221.3125 -2.625 221.3125 -3.40869141 218.6027832 C-5.2037056 212.96284608 -6.9762984 210.20674605 -12 207 C-14.55750307 205.97699877 -16.93546786 205.12332209 -19.5625 204.375 C-28.60246704 201.70717324 -28.60246704 201.70717324 -32 199 C-32.56762695 195.99731445 -32.56762695 195.99731445 -32.48828125 192.36328125 C-32.47216797 191.06455078 -32.45605469 189.76582031 -32.43945312 188.42773438 C-32.39767609 187.05597301 -32.35535135 185.68422823 -32.3125 184.3125 C-32.28741745 182.92907618 -32.26460418 181.54560923 -32.24414062 180.16210938 C-32.18510827 176.77365236 -32.10280082 173.38736615 -32 170 C-30.92202148 170.60183105 -30.92202148 170.60183105 -29.82226562 171.21582031 C-11.99183202 181.07450949 6.40674473 186.33443709 26.625 181.4375 C44.53952908 176.04428388 59.48947162 165.99608532 68.94140625 149.640625 C77.78813679 133.10929227 80.57126909 114.92032704 76.171875 96.6171875 C70.43113732 78.89744386 59.20058591 63.63896019 42.84375 54.34765625 C25.7519092 46.24781411 6.61350558 44.2134358 -11.53125 49.73828125 C-20.74431929 53.08943145 -28.63334287 57.53171569 -36 64 C-37.01513672 64.87398437 -37.01513672 64.87398437 -38.05078125 65.765625 C-45.15148042 72.32860132 -50.66637683 80.92513692 -54 90 C-57.96 89.505 -57.96 89.505 -62 89 C-62.00808685 88.43116592 -62.01617371 87.86233185 -62.02450562 87.27626038 C-62.11098632 81.32189693 -62.21050547 75.36784986 -62.31738281 69.41381836 C-62.35551631 67.19577372 -62.39039561 64.97767054 -62.421875 62.75952148 C-62.46786647 59.55952111 -62.52580329 56.35991842 -62.5859375 53.16015625 C-62.59748871 52.17854019 -62.60903992 51.19692413 -62.62094116 50.18556213 C-62.73271919 44.89587811 -63.23050525 40.0511053 -64.56484985 34.92430115 C-65.16609821 32.26548807 -65.13902686 29.7110238 -65 27 C-64.03320312 27.5053125 -63.06640625 28.010625 -62.0703125 28.53125 C-51.53558137 34.16969603 -51.53558137 34.16969603 -40 34 C-35.66304573 32.27666144 -31.50878474 30.19510243 -27.34765625 28.08984375 C-22.34641256 25.59645396 -17.21822014 23.97017003 -11.85546875 22.3984375 C-7.02026799 20.03044588 -5.2684779 16.01089298 -3.515625 11.1328125 C-3.08269561 9.80041629 -2.66279512 8.46377097 -2.25 7.125 C-1.5075 4.77375 -0.765 2.4225 0 0 Z " fill="#40AAFE" transform="translate(371,92)"/>
<path d="M0 0 C2.2109375 1.62890625 2.2109375 1.62890625 4 4 C4.390625 7.234375 4.390625 7.234375 4.25 10.75 C4.21390625 11.92046875 4.1778125 13.0909375 4.140625 14.296875 C4.09421875 15.18890625 4.0478125 16.0809375 4 17 C4.78503906 16.55527344 5.57007813 16.11054688 6.37890625 15.65234375 C16.0344896 10.45136081 16.0344896 10.45136081 20.0625 10.9375 C24.5326087 12.55434783 24.5326087 12.55434783 26 15 C26.95667998 18.69005134 27.32728142 21.06179327 26.0625 24.6875 C23.20909839 27.88676848 19.90246457 29.34075734 16 31 C17.95959934 33.06489124 19.60683387 34.38391531 22.0625 35.9375 C26.15603382 38.81168332 26.15603382 38.81168332 27 42 C26.85411447 45.5012527 26.35842363 47.47615008 24.375 50.375 C20.92681385 52.73428526 19.13897938 52.60081959 15 52 C11.54380198 50.54183762 8.26672458 48.84040821 5 47 C4.98582031 47.80824219 4.97164063 48.61648438 4.95703125 49.44921875 C4.56964435 58.12877922 4.56964435 58.12877922 1.875 62.25 C-1.77724916 64.47310819 -3.79364789 64.68831216 -8 64 C-11.20127866 61.47267474 -12.82083728 59.47311569 -13.31640625 55.3984375 C-13.39761719 54.40070313 -13.47882813 53.40296875 -13.5625 52.375 C-13.68818359 50.87066406 -13.68818359 50.87066406 -13.81640625 49.3359375 C-13.87699219 48.56507813 -13.93757813 47.79421875 -14 47 C-14.85271484 47.54140625 -14.85271484 47.54140625 -15.72265625 48.09375 C-20.59190581 51.02017712 -24.15688015 53.0113092 -30 52 C-32.9375 50.5 -32.9375 50.5 -35 48 C-35.51781182 44.73778555 -35.75849125 43.0706662 -35 40 C-31.96788253 35.98690335 -28.56040706 34.01506358 -24 32 C-24.62648438 31.59007812 -25.25296875 31.18015625 -25.8984375 30.7578125 C-26.71570313 30.21898437 -27.53296875 29.68015625 -28.375 29.125 C-29.18710937 28.59132813 -29.99921875 28.05765625 -30.8359375 27.5078125 C-33 26 -33 26 -35 24 C-35.31931774 20.04046005 -35.50486436 17.23060687 -34 13.5625 C-30.86078584 11.10998894 -27.86336964 10.58721927 -24 11 C-20.47743368 12.36292751 -17.24671459 14.07725304 -14 16 C-13.97421875 15.26394531 -13.9484375 14.52789062 -13.921875 13.76953125 C-13.35146444 3.95587676 -13.35146444 3.95587676 -9 0 C-5.81452856 -1.59273572 -3.39809153 -0.76164121 0 0 Z " fill="#5306A5" transform="translate(321,380)"/>
<path d="M0 0 C2.94131377 2.32208982 3.84963539 4.09398953 4.4609375 7.77734375 C4.72223736 10.52099226 4.90353834 13.24601951 5 16 C5.96099609 15.44119141 5.96099609 15.44119141 6.94140625 14.87109375 C11.11797122 12.58674301 14.05029686 11.01531779 18.875 10.9375 C22.43490176 12.1478666 23.96393202 12.82373396 26 16 C26.79408911 21.0027614 26.79408911 21.0027614 26 24 C22.75046513 27.40067602 19.09231465 29.71311828 15 32 C15.62648437 32.32613281 16.25296875 32.65226562 16.8984375 32.98828125 C17.71570313 33.42527344 18.53296875 33.86226563 19.375 34.3125 C20.18710938 34.74175781 20.99921875 35.17101562 21.8359375 35.61328125 C24 37 24 37 26 40 C26.56551375 44.36253463 26.49322651 46.29752588 23.9375 49.9375 C20.14403573 52.60099619 18.56740368 52.76123395 14 52 C10.85694107 50.54627258 7.92177618 48.85509599 5 47 C4.96261719 47.73605469 4.92523438 48.47210938 4.88671875 49.23046875 C4.2193159 59.13682093 4.2193159 59.13682093 1 63 C-2.13871188 64.56935594 -4.53855822 64.35201103 -8 64 C-10.875 62.25 -10.875 62.25 -13 59 C-13.70213691 55.00042011 -13.92883803 51.05623224 -14 47 C-14.96099609 47.54140625 -14.96099609 47.54140625 -15.94140625 48.09375 C-25.17613045 53.04829652 -25.17613045 53.04829652 -31 52 C-34.00342896 49.94502229 -34.83287356 48.52366286 -35.9375 45.0625 C-36.01634497 41.19909658 -35.49818172 39.95239658 -33 37 C-30.42714615 35.15645905 -27.76253524 33.54203273 -25 32 C-27.1534898 30.32506349 -29.22654899 28.87593746 -31.625 27.5625 C-34.28475185 25.81266326 -35.15227612 25.05180596 -36 22 C-35.92598764 17.85530765 -35.59591132 15.72231675 -32.9375 12.5 C-29.00317518 10.49098307 -26.09113808 10.70882522 -22 12 C-18.87763353 13.48360891 -15.92723331 15.16370318 -13 17 C-13.04640625 16.10796875 -13.0928125 15.2159375 -13.140625 14.296875 C-13.19476563 12.54117187 -13.19476563 12.54117187 -13.25 10.75 C-13.29640625 9.58984375 -13.3428125 8.4296875 -13.390625 7.234375 C-13 4 -13 4 -11.109375 1.640625 C-7.13473404 -1.45076241 -4.9067311 -1.18438337 0 0 Z " fill="#5306A5" transform="translate(86,380)"/>
<path d="M0 0 C2.64037384 1.80821811 2.99306694 2.97022864 3.73046875 6.13671875 C3.88128906 7.30847656 4.03210938 8.48023438 4.1875 9.6875 C4.34605469 10.86699219 4.50460938 12.04648437 4.66796875 13.26171875 C4.77753906 14.16535156 4.88710937 15.06898438 5 16 C5.96099609 15.44119141 5.96099609 15.44119141 6.94140625 14.87109375 C11.11797122 12.58674301 14.05029686 11.01531779 18.875 10.9375 C22.39950763 12.13583259 23.94983469 12.88374873 26 16 C26.5625 19.4375 26.5625 19.4375 26 23 C22.92219239 26.89252139 19.15721113 29.38965813 15 32 C15.71027344 32.40992188 16.42054688 32.81984375 17.15234375 33.2421875 C18.53099609 34.05042969 18.53099609 34.05042969 19.9375 34.875 C20.85402344 35.40867187 21.77054687 35.94234375 22.71484375 36.4921875 C25 38 25 38 26 40 C26.49055907 44.33327174 26.47744439 46.32000344 23.9375 49.9375 C20.14403573 52.60099619 18.56740368 52.76123395 14 52 C10.85694107 50.54627258 7.92177618 48.85509599 5 47 C4.95101562 47.74765625 4.90203125 48.4953125 4.8515625 49.265625 C4.77679688 50.25046875 4.70203125 51.2353125 4.625 52.25 C4.55539063 53.22453125 4.48578125 54.1990625 4.4140625 55.203125 C4.0067578 57.95435296 3.50814655 59.68135292 2 62 C-1.75047482 64.50031654 -3.55856266 64.53603554 -8 64 C-10.875 62.25 -10.875 62.25 -13 59 C-13.70213691 55.00042011 -13.92883803 51.05623224 -14 47 C-14.96099609 47.54140625 -14.96099609 47.54140625 -15.94140625 48.09375 C-25.17613045 53.04829652 -25.17613045 53.04829652 -31 52 C-34.27522945 49.84524379 -34.90229594 48.3358577 -36 44.5625 C-36 41 -36 41 -34.5 38.3125 C-31.51188404 35.54849274 -28.60834328 33.87356286 -25 32 C-27.1534898 30.32506349 -29.22654899 28.87593746 -31.625 27.5625 C-34.28475185 25.81266326 -35.15227612 25.05180596 -36 22 C-35.92598764 17.85530765 -35.59591132 15.72231675 -32.9375 12.5 C-29.00317518 10.49098307 -26.09113808 10.70882522 -22 12 C-18.87763353 13.48360891 -15.92723331 15.16370318 -13 17 C-13.04640625 16.10796875 -13.0928125 15.2159375 -13.140625 14.296875 C-13.19476563 12.54117187 -13.19476563 12.54117187 -13.25 10.75 C-13.29640625 9.58984375 -13.3428125 8.4296875 -13.390625 7.234375 C-13 4 -13 4 -11.109375 1.640625 C-7.12632101 -1.45730588 -4.91997128 -1.03578343 0 0 Z " fill="#5306A5" transform="translate(243,380)"/>
<path d="M0 0 C3.81603192 1.11011838 5.05428299 1.87752045 7.4375 5 C7.828125 8.234375 7.828125 8.234375 7.6875 11.75 C7.65140625 12.92046875 7.6153125 14.0909375 7.578125 15.296875 C7.53171875 16.18890625 7.4853125 17.0809375 7.4375 18 C8.22253906 17.55527344 9.00757813 17.11054688 9.81640625 16.65234375 C19.4719896 11.45136081 19.4719896 11.45136081 23.5 11.9375 C27.9701087 13.55434783 27.9701087 13.55434783 29.4375 16 C30.39417998 19.69005134 30.76478142 22.06179327 29.5 25.6875 C26.64659839 28.88676848 23.33996457 30.34075734 19.4375 32 C20.159375 32.5775 20.88125 33.155 21.625 33.75 C22.553125 34.4925 23.48125 35.235 24.4375 36 C25.345 36.598125 26.2525 37.19625 27.1875 37.8125 C30.22848713 40.76901527 30.3629344 42.82432664 30.4375 47 C29.33541992 50.39808026 28.51652124 50.94731917 25.4375 53 C18.72947048 53.95828993 14.10407813 51.19243839 8.4375 48 C8.42332031 48.80824219 8.40914062 49.61648438 8.39453125 50.44921875 C8.00714435 59.12877922 8.00714435 59.12877922 5.3125 63.25 C1.66025084 65.47310819 -0.35614789 65.68831216 -4.5625 65 C-7.76377866 62.47267474 -9.38333728 60.47311569 -9.87890625 56.3984375 C-9.96011719 55.40070313 -10.04132813 54.40296875 -10.125 53.375 C-10.25068359 51.87066406 -10.25068359 51.87066406 -10.37890625 50.3359375 C-10.43949219 49.56507813 -10.50007813 48.79421875 -10.5625 48 C-11.41521484 48.54140625 -11.41521484 48.54140625 -12.28515625 49.09375 C-17.12433033 52.0021017 -20.7592454 54.1160105 -26.5625 53 C-30.25436542 50.40783917 -31.39133761 48.95850936 -32.1875 44.5 C-31.39457615 40.05962645 -30.08365665 38.75568781 -26.5625 36 C-23.25 34.1875 -23.25 34.1875 -20.5625 33 C-21.27277344 32.51789063 -21.98304688 32.03578125 -22.71484375 31.5390625 C-23.63394531 30.90742188 -24.55304688 30.27578125 -25.5 29.625 C-26.41652344 28.99851562 -27.33304688 28.37203125 -28.27734375 27.7265625 C-30.5625 26 -30.5625 26 -31.5625 24 C-32.13068182 17.86363636 -32.13068182 17.86363636 -30 14.625 C-26.6004467 12.35863113 -24.68275651 11.93354425 -20.5625 12 C-17.06162858 13.39012704 -13.81604409 15.10810012 -10.5625 17 C-10.47613281 16.10796875 -10.38976562 15.2159375 -10.30078125 14.296875 C-10.09001953 12.54117187 -10.09001953 12.54117187 -9.875 10.75 C-9.74738281 9.58984375 -9.61976563 8.4296875 -9.48828125 7.234375 C-7.99952777 2.0331603 -5.37799115 0 0 0 Z " fill="#5306A5" transform="translate(160.5625,379)"/>
<path d="M0 0 C6.3565092 5.22646312 10.1853763 11.12107872 11.02734375 19.43359375 C11.34648428 26.7993572 9.699416 33.31025774 5.0625 39.125 C2.01057872 42.40581537 -1.15905412 44.37574717 -5.1875 46.3125 C-5.8475 46.3125 -6.5075 46.3125 -7.1875 46.3125 C-7.17178955 46.92246826 -7.1560791 47.53243652 -7.13989258 48.16088867 C-7.07730187 50.9404971 -7.03843378 53.71995692 -7 56.5 C-6.97486328 57.45970703 -6.94972656 58.41941406 -6.92382812 59.40820312 C-6.8306261 68.38666443 -6.8306261 68.38666443 -10.1875 72.3125 C-13.07611709 73.75680855 -14.98397701 73.68938506 -18.1875 73.3125 C-20.8671875 71.49609375 -20.8671875 71.49609375 -23.1875 68.3125 C-23.80050388 64.52302144 -23.65910829 60.82594238 -23.5 57 C-23.47744141 55.97326172 -23.45488281 54.94652344 -23.43164062 53.88867188 C-23.37287575 51.3617821 -23.29077849 48.83789745 -23.1875 46.3125 C-24.10273438 46.03664063 -25.01796875 45.76078125 -25.9609375 45.4765625 C-31.82091582 43.36242989 -35.71424755 39.71888882 -38.5625 34.1875 C-41.77234576 27.23748613 -42.20575666 20.12838866 -40.125 12.75 C-37.6533757 6.14360234 -33.26109939 1.12236125 -27 -2.125 C-17.49847116 -6.44035831 -8.96234917 -4.74477309 0 0 Z M-22.0625 14.4375 C-24.43079016 17.64165727 -25.1875 19.34040584 -25.1875 23.3125 C-23.58186079 26.94631505 -21.6954651 29.40817609 -18.1875 31.3125 C-13.99156901 32.04222713 -12.4962324 31.51055475 -8.875 29.1875 C-5.8706262 25.97351872 -5.09848767 24.67410415 -5.1875 20.3125 C-6.34454565 17.14584875 -7.26696428 15.03577807 -9.9375 12.9375 C-14.76932362 11.59532677 -17.94542347 11.39444343 -22.0625 14.4375 Z " fill="#5407A5" transform="translate(214.1875,242.6875)"/>
</svg>
